<?xml version="1.0" encoding="UTF-8"?>
<!DOCTYPE svg PUBLIC "-//W3C//DTD SVG 1.1//EN" "http://www.w3.org/Graphics/SVG/1.1/DTD/svg11.dtd">
<!-- Creator: CorelDRAW 2020 (64-Bit) -->
<svg xmlns="http://www.w3.org/2000/svg" xml:space="preserve" width="32.1732mm" height="18.6266mm" version="1.1" style="shape-rendering:geometricPrecision; text-rendering:geometricPrecision; image-rendering:optimizeQuality; fill-rule:evenodd; clip-rule:evenodd"
viewBox="0 0 3217.32 1862.66"
 xmlns:xlink="http://www.w3.org/1999/xlink"
 xmlns:xodm="http://www.corel.com/coreldraw/odm/2003">
 <defs>
  <style type="text/css">
   <![CDATA[
    .fil4 {fill:black}
    .fil3 {fill:#B3B3B3}
    .fil2 {fill:#E6E6E6}
    .fil1 {fill:#F15A28}
    .fil0 {fill:black;fill-rule:nonzero}
   ]]>
  </style>
 </defs>
 <g id="Layer_x0020_1">
  <metadata id="CorelCorpID_0Corel-Layer"/>
  <path class="fil0" d="M124.37 1309.96l0 -761.22 102.83 0 426.63 631.43 0 -631.43 76.22 0 0 761.22 -76.22 0 -453.24 -669.37 0 669.37 -76.22 0zm1650.58 0l-216.66 -761.22 79.49 0 186.44 663.19 181.98 -663.19 72.45 0 181.98 662.16 186.44 -662.16 79.49 0 -217.69 761.22 -99.58 0 -166.87 -624.22 -167.9 624.22 -99.57 0zm870.56 -213.4l81.37 0c0,42.41 14.6,78.46 43.78,108.51 29.19,30.04 65.41,45.15 108.67,45.15 43.95,0 81.21,-14.25 111.77,-42.75 30.56,-28.67 45.84,-64.55 45.84,-107.81 0,-20.95 -4.64,-40.69 -13.91,-59.75 -9.1,-18.88 -21.63,-34.85 -37.43,-47.9 -15.79,-12.87 -34.68,-23.69 -56.99,-32.44 -12.02,-4.3 -32.62,-10.65 -61.81,-18.72 -17.51,-4.29 -31.59,-8.07 -42.4,-11.5 -10.65,-3.43 -20.09,-6.52 -28.16,-9.61 -25.41,-9.62 -46.52,-21.98 -63.18,-36.57 -20.08,-17.17 -35.88,-38.11 -47.04,-62.84 -11.16,-24.89 -16.82,-51.16 -16.82,-78.97 0,-59.57 20.94,-108.67 62.83,-147.13 41.89,-38.62 93.05,-57.85 153.31,-57.85 58.37,0 107.82,19.74 148.33,59.23 40.69,39.66 60.95,88.41 60.95,146.78l-79.32 0c0,-38.8 -13.39,-70.73 -40,-95.97 -26.78,-25.23 -59.74,-37.94 -99.06,-37.94 -36.22,0 -67.12,13.05 -92.53,39.32 -25.58,26.09 -38.28,57.51 -38.28,94.25 0,28.15 7.38,51.67 22.14,70.39 12.02,15.1 30.9,28.49 56.48,39.83 7.56,3.43 17.52,7.03 29.36,10.81 11.85,3.95 26.1,8.24 42.58,12.88 42.57,12.02 68.15,19.74 76.57,23.17 14.07,5.33 26.61,11.34 37.76,17.86 10.99,6.52 21.81,14.59 32.11,23.86 21.8,18.89 38.97,42.75 51.67,71.59 12.71,28.84 19.06,58.2 19.06,88.07 0,61.64 -23,114.17 -68.84,157.6 -46.01,43.44 -100.26,65.24 -162.93,65.24 -65.75,0 -121.2,-21.11 -166.52,-63.35 -46.19,-43.26 -69.36,-97.68 -69.36,-163.44z"/>
  <path class="fil1" d="M1430.17 889.18l-434.61 0 0 69.01 434.61 0 0 -69.01zm-538.13 0l69.02 0 0 69.01 -69.02 0 0 -69.01zm538.13 -323.54l-434.61 0 0 69.01 434.61 0 0 -69.01zm-538.13 0l69.02 0 0 69.01 -69.02 0 0 -69.01zm538.13 647.08l-434.61 0 0 69.01 434.61 0 0 -69.01zm-538.13 0l69.02 0 0 69.01 -69.02 0 0 -69.01z"/>
  <path class="fil2" d="M780.46 41.82l1621.76 0 0 361.79 -29.81 0 0 -331.98 -1562.14 0 0 331.98 -29.81 0 0 -361.79zm1621.76 1418.34l0 350.46 -1621.76 0 0 -350.46 29.81 0 0 320.65 1562.14 0 0 -320.65 29.81 0z"/>
  <path class="fil2" d="M1793.87 240.69l-798.31 0 0 69.02 798.31 0 0 -69.02zm-901.83 0l69.02 0 0 69.02 -69.02 0 0 -69.02z"/>
  <polygon class="fil3" points="892.04,1534.69 961.06,1534.69 961.06,1603.7 892.04,1603.7 "/>
  <polygon class="fil0" points="1031.25,1609.92 1031.25,1441.26 1065.41,1441.26 1065.41,1609.92 "/>
  <polygon class="fil0" points="1142.39,1609.92 1142.39,1441.26 1175.44,1441.26 1244.85,1554.29 1244.85,1441.26 1276.41,1441.26 1276.41,1609.92 1242.3,1609.92 1173.95,1499.05 1173.95,1609.92 "/>
  <polygon class="fil0" points="1357,1609.92 1357,1441.26 1472.89,1441.26 1472.89,1469.77 1391.16,1469.77 1391.16,1509.81 1461.82,1509.81 1461.82,1538.31 1391.16,1538.31 1391.16,1609.92 "/>
  <path class="fil0" d="M1538.33 1526.61c0,-17.19 2.59,-31.64 7.73,-43.34 3.81,-8.6 9.07,-16.33 15.71,-23.16 6.63,-6.83 13.89,-11.9 21.78,-15.23 10.52,-4.44 22.65,-6.68 36.39,-6.68 24.89,0 44.76,7.74 59.72,23.16 14.91,15.47 22.37,36.95 22.37,64.47 0,27.28 -7.42,48.64 -22.22,64.03 -14.8,15.42 -34.62,23.12 -59.39,23.12 -25.09,0 -45.07,-7.66 -59.87,-23.01 -14.8,-15.31 -22.22,-36.43 -22.22,-63.36zm35.09 -1.14c0,19.12 4.44,33.61 13.27,43.5 8.84,9.85 20.06,14.8 33.65,14.8 13.62,0 24.77,-4.91 33.52,-14.68 8.72,-9.82 13.08,-24.5 13.08,-44.09 0,-19.35 -4.24,-33.8 -12.76,-43.3 -8.48,-9.54 -19.75,-14.29 -33.84,-14.29 -14.06,0 -25.4,4.83 -34,14.45 -8.6,9.65 -12.92,24.18 -12.92,43.61z"/>
  <polygon class="fil0" points="1772.65,1609.92 1772.65,1577.65 1804.92,1577.65 1804.92,1609.92 "/>
  <polygon class="fil0" points="1926.22,1609.92 1865.88,1441.26 1902.78,1441.26 1945.61,1566.1 1986.72,1441.26 2022.99,1441.26 1963.01,1609.92 "/>
  <polygon class="fil0" points="2084.7,1609.92 2084.7,1441.26 2117.75,1441.26 2187.16,1554.29 2187.16,1441.26 2218.73,1441.26 2218.73,1609.92 2184.61,1609.92 2116.26,1499.05 2116.26,1609.92 "/>
  <polygon class="fil4" points="892.04,1567.94 927.81,1567.94 927.81,1603.7 892.04,1603.7 "/>
 </g>
</svg>
