<?xml version="1.0" encoding="UTF-8"?>
<!DOCTYPE svg PUBLIC "-//W3C//DTD SVG 1.1//EN" "http://www.w3.org/Graphics/SVG/1.1/DTD/svg11.dtd">
<!-- Creator: CorelDRAW 2020 (64-Bit) -->
<svg xmlns="http://www.w3.org/2000/svg" xml:space="preserve" width="199.672mm" height="199.672mm" version="1.1" style="shape-rendering:geometricPrecision; text-rendering:geometricPrecision; image-rendering:optimizeQuality; fill-rule:evenodd; clip-rule:evenodd"
viewBox="0 0 19967.22 19967.22"
 xmlns:xlink="http://www.w3.org/1999/xlink"
 xmlns:xodm="http://www.corel.com/coreldraw/odm/2003">
 <defs>
  <style type="text/css">
   <![CDATA[
    .fil4 {fill:black}
    .fil3 {fill:#B3B3B3}
    .fil2 {fill:#E6E6E6}
    .fil1 {fill:#F15A28}
    .fil0 {fill:black;fill-rule:nonzero}
   ]]>
  </style>
 </defs>
 <g id="Layer_x0020_1">
  <metadata id="CorelCorpID_0Corel-Layer"/>
  <path class="fil0" d="M1271.35 12110.68l0 -4503.98 608.45 0 2524.22 3736.05 0 -3736.05 451 0 0 4503.98 -451 0 -2681.67 -3960.53 0 3960.53 -451 0zm9766.08 0l-1281.91 -4503.98 470.3 0 1103.14 3923.97 1076.73 -3923.97 428.66 0 1076.73 3917.87 1103.14 -3917.87 470.31 0 -1288.02 4503.98 -589.15 0 -987.34 -3693.38 -993.43 3693.38 -589.16 0zm5150.9 -1262.62l481.48 0c0,250.9 86.35,464.22 259.03,641.98 172.68,177.76 387.01,267.15 642.99,267.15 260.04,0 480.46,-84.31 661.27,-252.93 180.81,-169.64 271.22,-381.94 271.22,-637.91 0,-123.93 -27.43,-240.74 -82.28,-353.49 -53.84,-111.74 -127.99,-206.21 -221.44,-283.41 -93.46,-76.18 -205.19,-140.18 -337.24,-191.98 -71.11,-25.39 -193,-62.98 -365.68,-110.72 -103.61,-25.4 -186.91,-47.74 -250.9,-68.06 -62.98,-20.31 -118.85,-38.6 -166.59,-56.88 -150.34,-56.89 -275.28,-130.02 -373.81,-216.36 -118.84,-101.58 -212.3,-225.51 -278.32,-371.78 -66.03,-147.29 -99.55,-302.7 -99.55,-467.26 0,-352.47 123.93,-642.99 371.78,-870.52 247.85,-228.55 550.55,-342.32 907.09,-342.32 345.37,0 637.91,116.81 877.64,350.44 240.74,234.65 360.6,523.13 360.6,868.5l-469.29 0c0,-229.57 -79.23,-418.51 -236.68,-567.83 -158.46,-149.32 -353.49,-224.48 -586.11,-224.48 -214.33,0 -397.17,77.2 -547.5,232.61 -151.35,154.4 -226.52,340.29 -226.52,557.66 0,166.59 43.68,305.75 131.03,416.47 71.11,89.39 182.84,168.62 334.2,235.67 44.69,20.31 103.61,41.64 173.69,63.99 70.09,23.36 154.4,48.76 251.92,76.18 251.91,71.11 403.26,116.82 453.04,137.13 83.29,31.49 157.44,67.05 223.47,105.65 65.01,38.6 129,86.34 189.95,141.19 129,111.74 230.58,252.93 305.75,423.58 75.17,170.65 112.75,344.35 112.75,521.1 0,364.66 -136.11,675.49 -407.33,932.48 -272.23,257 -593.21,386 -963.97,386 -389.05,0 -717.14,-124.94 -985.31,-374.82 -273.25,-255.98 -410.38,-577.98 -410.38,-967.03z"/>
  <path class="fil1" d="M8997.45 9621.01l-2571.45 0 0 408.35 2571.45 0 0 -408.35zm-3183.97 0l408.35 0 0 408.35 -408.35 0 0 -408.35zm3183.97 -1914.31l-2571.45 0 0 408.35 2571.45 0 0 -408.35zm-3183.97 0l408.35 0 0 408.35 -408.35 0 0 -408.35zm3183.97 3828.62l-2571.45 0 0 408.35 2571.45 0 0 -408.35zm-3183.97 0l408.35 0 0 408.35 -408.35 0 0 -408.35z"/>
  <path class="fil2" d="M5153.27 4607.4l9595.56 0 0 2140.62 -176.38 0 0 -1964.24 -9242.8 0 0 1964.24 -176.38 0 0 -2140.62zm9595.56 8391.96l0 2073.6 -9595.56 0 0 -2073.6 176.38 0 0 1897.22 9242.8 0 0 -1897.22 176.38 0z"/>
  <path class="fil2" d="M11149.39 5784.06l-4723.39 0 0 408.35 4723.39 0 0 -408.35zm-5335.91 0l408.35 0 0 408.35 -408.35 0 0 -408.35z"/>
  <polygon class="fil3" points="5813.48,13440.33 6221.83,13440.33 6221.83,13848.68 5813.48,13848.68 "/>
  <polygon class="fil0" points="6637.17,13885.44 6637.17,12887.57 6839.25,12887.57 6839.25,13885.44 "/>
  <polygon class="fil0" points="7294.72,13885.44 7294.72,12887.57 7490.3,12887.57 7900.96,13556.3 7900.96,12887.57 8087.72,12887.57 8087.72,13885.44 7885.87,13885.44 7481.47,13229.49 7481.47,13885.44 "/>
  <polygon class="fil0" points="8564.55,13885.44 8564.55,12887.57 9250.23,12887.57 9250.23,13056.21 8766.63,13056.21 8766.63,13293.13 9184.73,13293.13 9184.73,13461.76 8766.63,13461.76 8766.63,13885.44 "/>
  <path class="fil0" d="M9637.41 13392.55c0,-101.74 15.33,-187.22 45.76,-256.44 22.53,-50.87 53.65,-96.63 92.91,-137.04 39.25,-40.42 82.22,-70.38 128.91,-90.13 62.25,-26.25 134.03,-39.49 215.32,-39.49 147.27,0 264.8,45.76 353.3,137.05 88.27,91.52 132.4,218.57 132.4,381.4 0,161.43 -43.9,287.79 -131.47,378.85 -87.57,91.28 -204.87,136.81 -351.44,136.81 -148.42,0 -266.65,-45.3 -354.22,-136.12 -87.57,-90.59 -131.47,-215.55 -131.47,-374.89zm207.65 -6.74c0,113.12 26.25,198.83 78.51,257.36 52.27,58.31 118.7,87.57 199.07,87.57 80.6,0 146.56,-29.03 198.36,-86.87 51.57,-58.07 77.35,-144.94 77.35,-260.85 0,-114.51 -25.08,-199.99 -75.49,-256.2 -50.17,-56.44 -116.83,-84.55 -200.22,-84.55 -83.16,0 -150.29,28.57 -201.16,85.48 -50.86,57.14 -76.42,143.08 -76.42,258.06z"/>
  <polygon class="fil0" points="11023.84,13885.44 11023.84,13694.51 11214.77,13694.51 11214.77,13885.44 "/>
  <polygon class="fil0" points="11932.48,13885.44 11575.47,12887.57 11793.81,12887.57 12047.23,13626.22 12290.42,12887.57 12505.05,12887.57 12150.13,13885.44 "/>
  <polygon class="fil0" points="12870.16,13885.44 12870.16,12887.57 13065.74,12887.57 13476.4,13556.3 13476.4,12887.57 13663.16,12887.57 13663.16,13885.44 13461.31,13885.44 13056.91,13229.49 13056.91,13885.44 "/>
  <polygon class="fil4" points="5813.48,13637.06 6025.1,13637.06 6025.1,13848.68 5813.48,13848.68 "/>
 </g>
</svg>
