<?xml version="1.0" encoding="UTF-8"?>
<!DOCTYPE svg PUBLIC "-//W3C//DTD SVG 1.1//EN" "http://www.w3.org/Graphics/SVG/1.1/DTD/svg11.dtd">
<!-- Creator: CorelDRAW 2020 (64-Bit) -->
<svg xmlns="http://www.w3.org/2000/svg" xml:space="preserve" width="215.9mm" height="215.9mm" version="1.1" style="shape-rendering:geometricPrecision; text-rendering:geometricPrecision; image-rendering:optimizeQuality; fill-rule:evenodd; clip-rule:evenodd"
viewBox="0 0 21590 21590"
 xmlns:xlink="http://www.w3.org/1999/xlink"
 xmlns:xodm="http://www.corel.com/coreldraw/odm/2003">
 <defs>
  <style type="text/css">
   <![CDATA[
    .fil5 {fill:none}
    .fil4 {fill:#FEFEFE}
    .fil2 {fill:#848688}
    .fil3 {fill:#727376}
    .fil1 {fill:#F15A28}
    .fil0 {fill:#FEFEFE;fill-rule:nonzero}
   ]]>
  </style>
 </defs>
 <g id="Layer_x0020_1">
  <metadata id="CorelCorpID_0Corel-Layer"/>
  <path class="fil0" d="M2082.75 12922.07l0 -4503.98 608.45 0 2524.22 3736.05 0 -3736.05 451 0 0 4503.98 -451 0 -2681.67 -3960.53 0 3960.53 -451 0zm9766.07 0l-1281.91 -4503.98 470.3 0 1103.14 3923.97 1076.73 -3923.97 428.66 0 1076.73 3917.87 1103.14 -3917.87 470.31 0 -1288.02 4503.98 -589.15 0 -987.34 -3693.38 -993.43 3693.38 -589.16 0zm5150.89 -1262.62l481.48 0c0,250.9 86.35,464.22 259.03,641.98 172.68,177.76 387.01,267.15 642.99,267.15 260.04,0 480.46,-84.31 661.27,-252.93 180.81,-169.64 271.22,-381.94 271.22,-637.91 0,-123.93 -27.43,-240.74 -82.28,-353.49 -53.84,-111.74 -127.99,-206.21 -221.44,-283.41 -93.46,-76.18 -205.19,-140.18 -337.24,-191.98 -71.11,-25.39 -193,-62.98 -365.68,-110.72 -103.61,-25.4 -186.91,-47.74 -250.9,-68.06 -62.98,-20.31 -118.85,-38.6 -166.59,-56.88 -150.34,-56.89 -275.28,-130.02 -373.81,-216.36 -118.84,-101.58 -212.3,-225.51 -278.32,-371.78 -66.03,-147.29 -99.55,-302.7 -99.55,-467.26 0,-352.47 123.93,-642.99 371.78,-870.52 247.85,-228.55 550.55,-342.32 907.09,-342.32 345.37,0 637.91,116.81 877.64,350.44 240.74,234.65 360.6,523.13 360.6,868.5l-469.29 0c0,-229.57 -79.23,-418.51 -236.68,-567.83 -158.46,-149.32 -353.49,-224.48 -586.11,-224.48 -214.33,0 -397.17,77.2 -547.5,232.61 -151.35,154.4 -226.52,340.29 -226.52,557.66 0,166.59 43.68,305.75 131.03,416.47 71.11,89.39 182.84,168.62 334.2,235.67 44.69,20.31 103.61,41.64 173.69,63.99 70.09,23.36 154.4,48.76 251.92,76.18 251.91,71.11 403.26,116.82 453.04,137.13 83.29,31.49 157.44,67.05 223.47,105.65 65.01,38.6 129,86.34 189.95,141.19 129,111.74 230.58,252.93 305.75,423.58 75.17,170.65 112.75,344.35 112.75,521.1 0,364.66 -136.11,675.49 -407.33,932.48 -272.23,257 -593.21,386 -963.97,386 -389.05,0 -717.14,-124.94 -985.31,-374.82 -273.25,-255.98 -410.38,-577.98 -410.38,-967.03z"/>
  <path class="fil1" d="M9808.84 10432.4l-2571.45 0 0 408.35 2571.45 0 0 -408.35zm-3183.97 0l408.35 0 0 408.35 -408.35 0 0 -408.35zm3183.97 -1914.31l-2571.45 0 0 408.35 2571.45 0 0 -408.35zm-3183.97 0l408.35 0 0 408.35 -408.35 0 0 -408.35zm3183.97 3828.62l-2571.45 0 0 408.35 2571.45 0 0 -408.35zm-3183.97 0l408.35 0 0 408.35 -408.35 0 0 -408.35z"/>
  <path class="fil2" d="M5964.66 5418.8l9595.55 0 0 2140.62 -176.38 0 0 -1964.24 -9242.79 0 0 1964.24 -176.38 0 0 -2140.62zm9595.55 8391.95l0 2073.6 -9595.55 0 0 -2073.6 176.38 0 0 1897.22 9242.79 0 0 -1897.22 176.38 0z"/>
  <path class="fil2" d="M11960.78 6595.45l-4723.39 0 0 408.35 4723.39 0 0 -408.35zm-5335.91 0l408.35 0 0 408.35 -408.35 0 0 -408.35z"/>
  <polygon class="fil3" points="6624.87,14251.72 7033.22,14251.72 7033.22,14660.07 6624.87,14660.07 "/>
  <polygon class="fil0" points="7448.56,14696.83 7448.56,13698.96 7650.64,13698.96 7650.64,14696.83 "/>
  <polygon class="fil0" points="8106.11,14696.83 8106.11,13698.96 8301.69,13698.96 8712.35,14367.69 8712.35,13698.96 8899.11,13698.96 8899.11,14696.83 8697.26,14696.83 8292.86,14040.88 8292.86,14696.83 "/>
  <polygon class="fil0" points="9375.94,14696.83 9375.94,13698.96 10061.62,13698.96 10061.62,13867.6 9578.02,13867.6 9578.02,14104.52 9996.12,14104.52 9996.12,14273.15 9578.02,14273.15 9578.02,14696.83 "/>
  <path class="fil0" d="M10448.8 14203.94c0,-101.74 15.33,-187.22 45.76,-256.44 22.53,-50.87 53.65,-96.63 92.91,-137.04 39.25,-40.42 82.22,-70.38 128.91,-90.13 62.25,-26.25 134.03,-39.49 215.32,-39.49 147.27,0 264.8,45.76 353.3,137.05 88.27,91.52 132.4,218.57 132.4,381.4 0,161.43 -43.9,287.79 -131.47,378.85 -87.57,91.28 -204.87,136.81 -351.44,136.81 -148.42,0 -266.65,-45.3 -354.22,-136.12 -87.57,-90.59 -131.47,-215.55 -131.47,-374.89zm207.65 -6.74c0,113.12 26.25,198.83 78.51,257.36 52.27,58.31 118.7,87.57 199.07,87.57 80.6,0 146.56,-29.03 198.36,-86.87 51.57,-58.07 77.35,-144.94 77.35,-260.85 0,-114.51 -25.08,-199.99 -75.49,-256.2 -50.17,-56.44 -116.83,-84.55 -200.22,-84.55 -83.16,0 -150.29,28.57 -201.16,85.48 -50.86,57.14 -76.42,143.08 -76.42,258.06z"/>
  <polygon class="fil0" points="11835.23,14696.83 11835.23,14505.9 12026.16,14505.9 12026.16,14696.83 "/>
  <polygon class="fil0" points="12743.87,14696.83 12386.86,13698.96 12605.2,13698.96 12858.62,14437.61 13101.81,13698.96 13316.44,13698.96 12961.52,14696.83 "/>
  <polygon class="fil0" points="13681.55,14696.83 13681.55,13698.96 13877.13,13698.96 14287.79,14367.69 14287.79,13698.96 14474.55,13698.96 14474.55,14696.83 14272.7,14696.83 13868.3,14040.88 13868.3,14696.83 "/>
  <polygon class="fil4" points="6624.87,14448.45 6836.49,14448.45 6836.49,14660.07 6624.87,14660.07 "/>
  <rect class="fil5" x="-0" y="-0" width="21590" height="21590"/>
 </g>
</svg>
