<?xml version="1.0" encoding="UTF-8"?>
<!DOCTYPE svg PUBLIC "-//W3C//DTD SVG 1.1//EN" "http://www.w3.org/Graphics/SVG/1.1/DTD/svg11.dtd">
<!-- Creator: CorelDRAW 2020 (64-Bit) -->
<svg xmlns="http://www.w3.org/2000/svg" xml:space="preserve" width="182.88mm" height="50.8mm" version="1.1" style="shape-rendering:geometricPrecision; text-rendering:geometricPrecision; image-rendering:optimizeQuality; fill-rule:evenodd; clip-rule:evenodd"
viewBox="0 0 18288 5080"
 xmlns:xlink="http://www.w3.org/1999/xlink"
 xmlns:xodm="http://www.corel.com/coreldraw/odm/2003">
 <defs>
  <style type="text/css">
   <![CDATA[
    .fil1 {fill:#F15A28}
    .fil0 {fill:#FEFEFE;fill-rule:nonzero}
   ]]>
  </style>
 </defs>
 <g id="Layer_x0020_1">
  <metadata id="CorelCorpID_0Corel-Layer"/>
  <path class="fil0" d="M431.74 4836.41l0 -4503.98 608.45 0 2524.22 3736.05 0 -3736.05 451 0 0 4503.98 -451 0 -2681.67 -3960.53 0 3960.53 -451 0zm9766.08 0l-1281.91 -4503.98 470.3 0 1103.14 3923.97 1076.73 -3923.97 428.66 0 1076.73 3917.87 1103.14 -3917.87 470.31 0 -1288.02 4503.98 -589.15 0 -987.34 -3693.38 -993.43 3693.38 -589.16 0zm5150.9 -1262.62l481.48 0c0,250.9 86.35,464.22 259.03,641.98 172.68,177.76 387.01,267.15 642.99,267.15 260.04,0 480.46,-84.31 661.27,-252.93 180.81,-169.64 271.22,-381.94 271.22,-637.91 0,-123.93 -27.43,-240.74 -82.28,-353.49 -53.84,-111.74 -127.99,-206.21 -221.44,-283.41 -93.46,-76.18 -205.19,-140.18 -337.24,-191.98 -71.11,-25.39 -193,-62.98 -365.68,-110.72 -103.61,-25.4 -186.91,-47.74 -250.9,-68.06 -62.98,-20.31 -118.85,-38.6 -166.59,-56.88 -150.34,-56.89 -275.28,-130.02 -373.81,-216.36 -118.84,-101.58 -212.3,-225.51 -278.32,-371.78 -66.03,-147.29 -99.55,-302.7 -99.55,-467.26 0,-352.47 123.93,-642.99 371.78,-870.52 247.85,-228.55 550.55,-342.32 907.09,-342.32 345.37,0 637.91,116.81 877.64,350.44 240.74,234.65 360.6,523.13 360.6,868.5l-469.29 0c0,-229.57 -79.23,-418.51 -236.68,-567.83 -158.46,-149.32 -353.49,-224.48 -586.11,-224.48 -214.33,0 -397.17,77.2 -547.5,232.61 -151.35,154.4 -226.52,340.29 -226.52,557.66 0,166.59 43.68,305.75 131.03,416.47 71.11,89.39 182.84,168.62 334.2,235.67 44.69,20.31 103.61,41.64 173.69,63.99 70.09,23.36 154.4,48.76 251.92,76.18 251.91,71.11 403.26,116.82 453.04,137.13 83.29,31.49 157.44,67.05 223.47,105.65 65.01,38.6 129,86.34 189.95,141.19 129,111.74 230.58,252.93 305.75,423.58 75.17,170.65 112.75,344.35 112.75,521.1 0,364.66 -136.11,675.49 -407.33,932.48 -272.23,257 -593.21,386 -963.97,386 -389.05,0 -717.14,-124.94 -985.31,-374.82 -273.25,-255.98 -410.38,-577.98 -410.38,-967.03z"/>
  <path class="fil1" d="M8157.84 2346.74l-2571.45 0 0 408.35 2571.45 0 0 -408.35zm-3183.97 0l408.35 0 0 408.35 -408.35 0 0 -408.35zm3183.97 -1914.31l-2571.45 0 0 408.35 2571.45 0 0 -408.35zm-3183.97 0l408.35 0 0 408.35 -408.35 0 0 -408.35zm3183.97 3828.62l-2571.45 0 0 408.35 2571.45 0 0 -408.35zm-3183.97 0l408.35 0 0 408.35 -408.35 0 0 -408.35z"/>
 </g>
</svg>
