<?xml version="1.0" encoding="UTF-8"?>
<!DOCTYPE svg PUBLIC "-//W3C//DTD SVG 1.1//EN" "http://www.w3.org/Graphics/SVG/1.1/DTD/svg11.dtd">
<!-- Creator: CorelDRAW 2020 (64-Bit) -->
<svg xmlns="http://www.w3.org/2000/svg" xml:space="preserve" width="215.9mm" height="215.9mm" version="1.1" style="shape-rendering:geometricPrecision; text-rendering:geometricPrecision; image-rendering:optimizeQuality; fill-rule:evenodd; clip-rule:evenodd"
viewBox="0 0 21590 21590"
 xmlns:xlink="http://www.w3.org/1999/xlink"
 xmlns:xodm="http://www.corel.com/coreldraw/odm/2003">
 <defs>
  <style type="text/css">
   <![CDATA[
    .str0 {stroke:black;stroke-width:17.64;stroke-miterlimit:2.61313}
    .fil1 {fill:none}
    .fil0 {fill:black}
    .fil4 {fill:#4D4D4D}
    .fil3 {fill:#F15A28}
    .fil5 {fill:white}
    .fil2 {fill:white;fill-rule:nonzero}
   ]]>
  </style>
 </defs>
 <g id="Layer_x0020_1">
  <metadata id="CorelCorpID_0Corel-Layer"/>
  <polygon class="fil0" points="21569.73,20.27 45.45,20.27 45.45,21544.55 21569.73,21544.55 "/>
  <path class="fil1 str0" d="M21569.73 20.27l-21524.28 0m21524.28 21524.28l0 -21524.28"/>
  <path class="fil2" d="M1414.22 13086.02l0 -4849.09 655.07 0 2717.63 4022.32 0 -4022.32 485.56 0 0 4849.09 -485.56 0 -2887.15 -4264 0 4264 -485.55 0zm10514.38 0l-1380.13 -4849.09 506.33 0 1187.67 4224.64 1159.23 -4224.64 461.51 0 1159.23 4218.07 1187.67 -4218.07 506.34 0 -1386.71 4849.09 -634.29 0 -1062.99 -3976.38 -1069.55 3976.38 -634.31 0zm5545.58 -1359.37l518.37 0c0,270.13 92.97,499.79 278.88,691.17 185.91,191.38 416.66,287.62 692.26,287.62 279.96,0 517.27,-90.77 711.94,-272.31 194.66,-182.64 292,-411.2 292,-686.79 0,-133.42 -29.53,-259.18 -88.59,-380.57 -57.96,-120.3 -137.79,-222.01 -238.4,-305.13 -100.62,-82.02 -220.92,-150.92 -363.08,-206.69 -76.56,-27.33 -207.79,-67.8 -393.7,-119.2 -111.55,-27.35 -201.24,-51.4 -270.13,-73.28 -67.8,-21.86 -127.95,-41.55 -179.35,-61.24 -161.86,-61.24 -296.38,-139.98 -402.46,-232.93 -127.94,-109.37 -228.56,-242.79 -299.64,-400.27 -71.09,-158.58 -107.18,-325.89 -107.18,-503.06 0,-379.48 133.43,-692.26 400.27,-937.23 266.84,-246.06 592.73,-368.54 976.59,-368.54 371.84,0 686.79,125.76 944.89,377.29 259.19,252.63 388.23,563.21 388.23,935.04l-505.25 0c0,-247.16 -85.3,-450.57 -254.81,-611.33 -170.61,-160.77 -380.58,-241.69 -631.02,-241.69 -230.76,0 -427.61,83.12 -589.45,250.44 -162.95,166.23 -243.88,366.36 -243.88,600.39 0,179.35 47.03,329.18 141.07,448.38 76.56,96.24 196.85,181.54 359.81,253.73 48.11,21.86 111.55,44.83 186.99,68.89 75.47,25.15 166.24,52.5 271.23,82.02 271.21,76.56 434.16,125.77 487.75,147.63 89.67,33.91 169.5,72.19 240.59,113.75 70,41.56 138.89,92.96 204.51,152.01 138.88,120.3 248.25,272.31 329.18,456.03 80.93,183.73 121.39,370.74 121.39,561.03 0,392.6 -146.54,727.25 -438.55,1003.93 -293.08,276.69 -638.66,415.58 -1037.83,415.58 -418.86,0 -772.09,-134.52 -1060.81,-403.54 -294.18,-275.6 -441.82,-622.27 -441.82,-1041.13z"/>
  <path class="fil3" d="M9732.31 10405.58l-2768.48 0 0 439.64 2768.48 0 0 -439.64zm-3427.93 0l439.64 0 0 439.64 -439.64 0 0 -439.64zm3427.93 -2060.99l-2768.48 0 0 439.64 2768.48 0 0 -439.64zm-3427.93 0l439.64 0 0 439.64 -439.64 0 0 -439.64zm3427.93 4121.98l-2768.48 0 0 439.64 2768.48 0 0 -439.64zm-3427.93 0l439.64 0 0 439.64 -439.64 0 0 -439.64z"/>
  <path class="fil4" d="M6304.38 14517.55l439.64 0 0 439.64 -439.64 0 0 -439.64zm5744.76 -8242.92l-5085.31 0 0 439.64 5085.31 0 0 -439.64zm-5744.76 0l439.64 0 0 439.64 -439.64 0 0 -439.64zm-710.8 -1266.82l10330.8 0 0 2304.64 -189.89 0 0 -2114.74 -9951.02 0 0 2114.74 -189.89 0 0 -2304.64zm10330.8 9034.98l0 2232.49 -10330.8 0 0 -2232.49 189.89 0 0 2042.59 9951.02 0 0 -2042.59 189.89 0z"/>
  <polygon class="fil2" points="7191.18,14996.76 7191.18,13922.44 7408.74,13922.44 7408.74,14996.76 "/>
  <polygon class="fil2" points="7899.11,14996.76 7899.11,13922.44 8109.68,13922.44 8551.81,14642.41 8551.81,13922.44 8752.88,13922.44 8752.88,14996.76 8535.56,14996.76 8100.17,14290.55 8100.17,14996.76 "/>
  <polygon class="fil2" points="9266.24,14996.76 9266.24,13922.44 10004.46,13922.44 10004.46,14104 9483.81,14104 9483.81,14359.07 9933.94,14359.07 9933.94,14540.62 9483.81,14540.62 9483.81,14996.76 "/>
  <path class="fil2" d="M10421.31 14466.11c0,-109.54 16.5,-201.57 49.26,-276.09 24.26,-54.77 57.77,-104.04 100.03,-147.54 42.26,-43.52 88.52,-75.77 138.79,-97.04 67.02,-28.26 144.3,-42.51 231.82,-42.51 158.55,0 285.09,49.26 380.37,147.55 95.03,98.53 142.55,235.32 142.55,410.62 0,173.8 -47.27,309.84 -141.55,407.88 -94.28,98.27 -220.57,147.29 -378.37,147.29 -159.79,0 -287.08,-48.77 -381.36,-146.55 -94.28,-97.53 -141.54,-232.06 -141.54,-403.61zm223.56 -7.26c0,121.79 28.26,214.07 84.52,277.08 56.28,62.78 127.8,94.28 214.33,94.28 86.77,0 157.79,-31.25 213.56,-93.52 55.52,-62.52 83.27,-156.05 83.27,-280.84 0,-123.29 -27,-215.32 -81.27,-275.83 -54.01,-60.77 -125.78,-91.03 -215.56,-91.03 -89.53,0 -161.81,30.76 -216.58,92.03 -54.75,61.52 -82.27,154.04 -82.27,277.83z"/>
  <polygon class="fil2" points="11913.97,14996.76 11913.97,14791.21 12119.53,14791.21 12119.53,14996.76 "/>
  <polygon class="fil2" points="12892.23,14996.76 12507.87,13922.44 12742.94,13922.44 13015.78,14717.68 13277.6,13922.44 13508.68,13922.44 13126.56,14996.76 "/>
  <polygon class="fil2" points="13901.76,14996.76 13901.76,13922.44 14112.33,13922.44 14554.45,14642.41 14554.45,13922.44 14755.52,13922.44 14755.52,14996.76 14538.21,14996.76 14102.82,14290.55 14102.82,14996.76 "/>
  <polygon class="fil5" points="6304.38,14729.35 6532.21,14729.35 6532.21,14957.19 6304.38,14957.19 "/>
 </g>
</svg>
